<?xml version="1.0" encoding="UTF-8" standalone="no"?>
<!-- Created with Inkscape (http://www.inkscape.org/) -->

<svg
   version="1.1"
   id="svg1"
   width="269"
   height="445"
   viewBox="0 0 269 445"
   sodipodi:docname="Kem-map.svg"
   inkscape:version="1.4.2 (f4327f4, 2025-05-13)"
   xmlns:inkscape="http://www.inkscape.org/namespaces/inkscape"
   xmlns:sodipodi="http://sodipodi.sourceforge.net/DTD/sodipodi-0.dtd"
   xmlns="http://www.w3.org/2000/svg"
   xmlns:svg="http://www.w3.org/2000/svg">
  <defs
     id="defs1" />
  <sodipodi:namedview
     id="namedview1"
     pagecolor="#ffffff"
     bordercolor="#000000"
     borderopacity="0.25"
     inkscape:showpageshadow="2"
     inkscape:pageopacity="0.0"
     inkscape:pagecheckerboard="0"
     inkscape:deskcolor="#d1d1d1"
     inkscape:zoom="2.5460674"
     inkscape:cx="212.68094"
     inkscape:cy="209.14607"
     inkscape:window-width="2560"
     inkscape:window-height="1351"
     inkscape:window-x="-9"
     inkscape:window-y="-9"
     inkscape:window-maximized="1"
     inkscape:current-layer="g1" />
  <g
     inkscape:groupmode="layer"
     inkscape:label="Image"
     id="g1">
    <path
       style="fill:#000000;fill-opacity:0;stroke:#000000;stroke-opacity:1"
       d="m 216.03518,440.06574 c -1.48852,-2.78133 -1.27454,-8.55711 0.47188,-12.73689 1.12904,-2.70217 1.22494,-3.94684 0.38233,-4.96213 -0.61861,-0.74538 -0.90919,-2.48281 -0.64574,-3.86097 0.53984,-2.824 -0.38906,-3.24039 -2.24365,-1.00575 -2.55199,3.07496 -8.06273,1.8552 -12.96565,-2.86985 -7.91349,-7.62641 -10.20484,-7.67932 -19.37415,-0.44736 -5.30005,4.18022 -8.83634,4.82188 -10.8535,1.96936 -0.71868,-1.01632 -2.96209,-2.15568 -4.98534,-2.53193 -4.24579,-0.78954 -7.37359,-3.05652 -9.13405,-6.62022 -1.02862,-2.08224 -2.06228,-2.55246 -6.18576,-2.81396 -6.77122,-0.42942 -7.85662,-1.54021 -7.16999,-7.33772 0.51152,-4.31898 0.35617,-4.78716 -1.83605,-5.53326 -7.2644,-2.47236 -12.83741,-14.30498 -8.74789,-18.57352 C 137.82701,367.4398 138.35495,358 133.57208,358 132.06493,358 127,352.78549 127,351.23383 c 0,-0.63621 -1.70893,-1.61691 -3.79763,-2.17934 C 114.34283,346.66887 110.91648,335 119.07553,335 c 1.11255,0 2.48856,-1.38648 3.5079,-3.53458 0.9225,-1.94401 2.51861,-3.98485 3.54692,-4.53518 3.09445,-1.6561 2.49666,-6.57871 -0.88035,-7.24942 -8.83513,-1.75477 -13.86814,-3.79746 -15.75,-6.39227 -1.1,-1.51674 -3.52464,-4.33428 -5.38809,-6.26121 -3.6397,-3.7637 -4.989967,-6.92967 -5.982582,-14.02734 -0.587009,-4.1974 -0.858953,-4.53362 -4.044072,-5 -3.669263,-0.53727 -5.845934,-4.27388 -6.009178,-10.31574 -0.120091,-4.44474 -1.581925,-6.20606 -8.518606,-10.26385 -3.933766,-2.30116 -7.706582,-5.49262 -9.584591,-8.1077 C 68.219439,256.87108 66.064522,255 65.005959,255 63.977585,255 62.174904,253.65 61,252 c -1.911494,-2.68445 -2.691239,-3 -7.413107,-3 -6.090482,0 -6.832044,-0.60719 -11.602346,-9.5 -3.853396,-7.18351 -6.170692,-10.61902 -10.916442,-16.18418 -8.465683,-9.92739 -9.621111,-12.8562 -6.833048,-17.3206 1.057993,-1.69411 0.914628,-2.20208 -1,-3.54313 C 19.348383,199.72975 20.239036,195.61964 25.5,192 c 2.475,-1.70284 4.5,-3.47302 4.5,-3.93373 0,-1.97596 -2.797327,-5.89821 -6.75,-9.46447 -4.270476,-3.853 -5.903422,-9.46189 -3.234849,-11.11116 C 21.037278,166.85893 24,160.48124 24,158.91267 c 0,-0.46369 -1.35,-2.38064 -3,-4.25989 -3.791582,-4.31837 -3.757762,-4.96288 0.436012,-8.30917 1.889806,-1.50792 3.220691,-3.09006 2.957521,-3.51588 C 23.683764,141.6793 18.055801,139.38119 13.5,138.37949 8.3464738,137.24637 7.4276591,133.3617 11.434801,129.648 12.84566,128.34046 14,126.67921 14,125.95633 c 0,-0.72288 0.517955,-2.74671 1.151012,-4.4974 1.553851,-4.2971 -2.019503,-10.95112 -7.3575882,-13.70071 C 3.1292639,105.35575 1.8918471,102.14774 4.8672656,100.17214 7.5522801,98.389356 7.6196278,94.868058 5,93.232073 2.3856063,91.599357 2.3535197,86.211837 4.93086,81.623098 L 6.86172,78.185363 3.93086,76.971361 C 2.318887,76.30366 1,75.237081 1,74.601186 1,72.800246 3.9713599,69 5.3794906,69 6.075836,69 9.4492871,67.641862 12.876049,65.981916 23.299924,60.932522 27.48393,60.166549 30.282162,62.795352 l 2.336997,2.195494 3.816113,-3.495423 C 38.534134,59.57294 40.875929,58 41.639261,58 c 0.763332,0 2.219208,-0.519175 3.23528,-1.153723 1.395702,-0.87163 2.967694,-0.87163 6.429251,0 C 59.317771,58.864221 64.457563,58.457563 62,56 58.264312,52.264312 60.040476,49.564827 68.25,46.501002 70.899122,45.51234 73,44.090915 73,43.287219 73,41.2233 78.50665,36 80.68253,36 c 1.010007,0 2.398436,-0.9 3.085397,-2 0.686961,-1.1 1.814727,-2 2.506146,-2 0.691419,0 3.166662,-2.925 5.500541,-6.5 5.06009,-7.750971 8.248156,-8.638521 12.571936,-3.5 3.07514,3.654603 5.61705,3.776357 10.43864,0.5 5.03726,-3.422907 13.21859,-3.551103 15.89223,-0.24902 1.17474,1.450863 2.65713,2.132487 4.17044,1.917624 1.36196,-0.193373 3.25808,0.521746 4.51546,1.702993 2.83028,2.658913 4.41079,1.547289 4.81218,-3.384573 L 144.5,18.5 150,18.354439 c 3.025,-0.08006 6.4761,0.314003 7.66911,0.875691 1.71053,0.805342 2.80025,0.571846 5.15437,-1.104439 5.02141,-3.575558 6.72841,-2.8358 8.67652,3.760117 1.28858,4.362872 1.13734,4.376018 9.15947,-0.796192 3.76229,-2.425711 8.64053,-5.55896 10.84053,-6.962777 2.2,-1.403816 6.76916,-4.9316434 10.15368,-7.839616 6.76053,-5.80862027 8.32018,-6.23954334 12.02773,-3.3231876 2.48658,1.9559468 2.50846,1.9554618 5.31266,-0.1177719 C 222.44821,0.29250511 224,1.0853865 224,5.4040294 c 0,2.0160038 0.77297,3.9855258 2,5.0959706 3.47186,3.141991 0.0274,12.5 -4.60097,12.5 -2.90022,0 -3.01028,0.953207 -0.48127,4.168324 1.05477,1.340923 2.23537,4.21411 2.62355,6.384859 C 224.48072,38.806458 227.49702,42 231.51933,42 234.66313,42 238,44.499172 238,46.853741 c 0,0.657942 1.38868,1.473994 3.08595,1.813449 3.30175,0.66035 3.42893,0.851427 4.38145,6.58281 0.34277,2.0625 1.18147,3.75 1.86377,3.75 3.54175,0 12.98711,14.230909 11.73803,17.68518 -1.49842,4.143806 -0.15119,8.949711 3.45982,12.342084 5.98626,5.623801 -1.05201,14.011576 -18.80426,22.409736 -3.71417,1.75708 -6.32183,3.86684 -8.09939,6.55291 -1.44188,2.17884 -3.70041,4.66838 -5.01896,5.53232 -1.39422,0.91353 -3.32836,4.06029 -4.62233,7.52033 -1.22373,3.27224 -4.03551,8.0064 -6.24838,10.52036 l -4.02341,4.57084 2.14386,4.29265 c 1.17912,2.36096 2.14385,5.19518 2.14385,6.29826 0,1.10309 0.9,3.14978 2,4.5482 1.1,1.39842 2.00437,4.04661 2.00971,5.88486 0.007,2.30292 1.09508,4.70766 3.5,7.733 1.91966,2.4149 3.49029,4.81892 3.49029,5.34227 0,0.52335 0.9,2.09571 2,3.49413 3.28784,4.17981 2.6969,9.50394 -1.40187,12.63023 -2.80669,2.14076 -3.49655,3.42997 -3.94301,7.36868 -2.39378,21.11808 -3.39075,24.09339 -8.82792,26.34554 -3.62878,1.50308 -1.67542,3.92842 3.16393,3.92842 1.43488,0 3.11411,0.50524 3.73163,1.12276 0.83036,0.83036 1.98931,0.12424 4.45,-2.71125 5.46796,-6.3008 6.74517,-7.41151 8.52252,-7.41151 2.60054,0 7.30472,5.05024 7.30472,7.84208 0,2.36419 0.0801,2.3954 1.90646,0.74257 11.01569,-9.96906 18.19485,11.63161 7.48464,22.5198 -5.71889,5.81392 -6.3105,12.653 -1.04607,12.0928 4.92663,-0.52425 7.9201,2.27401 7.17165,6.70399 -0.46754,2.7674 -0.22424,4.09657 0.92437,5.04984 3.32732,2.76143 0.37258,8.03329 -4.51979,8.06423 -3.63001,0.023 -4.55886,0.99102 -6.42236,6.69353 -1.14506,3.50397 -2.77299,6.02558 -4.97382,7.70424 -3.15498,2.40641 -3.2337,2.63759 -2.20741,6.48257 0.94352,3.53492 0.75901,4.61052 -1.62672,9.48281 -3.22178,6.57974 -3.2759,7.00379 -0.68749,5.38731 2.24891,-1.40447 4.60934,-0.41768 6.42971,2.68796 0.58676,1.00104 2.52718,3.44597 4.31205,5.43317 3.26514,3.63527 4.20192,7.76596 2.2124,9.75548 -0.72318,0.72318 -0.57006,1.43437 0.5,2.32245 1.96716,1.63259 1.99085,4.6491 0.0424,5.3968 -0.825,0.31658 -1.5,1.41128 -1.5,2.43267 0,1.02139 -1.14371,2.93154 -2.54159,4.24477 -3.53815,3.32393 -2.93669,6.36692 1.33969,6.77788 2.62988,0.25273 3.6298,1.01251 4.93522,3.75 0.90041,1.88818 2.38401,3.43305 3.2969,3.43305 6.76795,0 6.4097,10.83584 -0.59674,18.04932 -3.16078,3.25417 -3.32478,3.71152 -1.97227,5.5 3.62997,4.80002 -3.27132,15.16905 -16.71121,25.10825 -4.39808,3.25251 -4.75,3.83448 -4.75,7.85502 0,4.32427 -3.15823,8.48741 -6.43869,8.48741 -0.64294,0 -2.69553,1.575 -4.56131,3.5 -3.8993,4.02305 -8.28122,4.71157 -9.96482,1.56574 z"
       id="path5" 
       title="Новокузнецкий район"/>
    <path
       style="fill:#000000;fill-opacity:0;stroke:#000000;stroke-opacity:1"
       d="m 152.56144,82.168246 c 1.06621,-1.007465 3.04858,-3.296886 4.40526,-5.087604 4.83181,-6.377593 9.81505,-9.535403 12.65176,-8.017242 2.29595,1.228752 2.67273,1.104256 4.82428,-1.594046 2.42909,-3.04637 6.46583,-2.463432 8.85695,1.279015 C 183.73952,69.436766 184.69133,70 185.41483,70 c 0.7235,0 2.38864,0.834803 3.70031,1.855118 1.31167,1.020315 4.07236,2.165706 6.13486,2.545313 2.0625,0.379607 3.75,1.119804 3.75,1.644882 C 199,76.570391 199.63098,77 200.40217,77 c 1.98659,0 3.68675,-5.589033 3.0041,-9.875538 -0.47068,-2.955511 -0.1441,-4.030499 1.76944,-5.824422 3.61949,-3.393217 2.80349,-11.104163 -1.34061,-12.668386 -2.26096,-0.853416 -2.81782,-1.576805 -2.40273,-3.121264 0.29718,-1.105714 0.54647,-2.524106 0.55398,-3.151982 0.008,-0.627876 1.13865,-1.423949 2.51365,-1.769052 1.375,-0.345103 2.5,-1.068887 2.5,-1.608408 C 207,38.441427 207.675,38 208.5,38 c 0.825,0 1.5,-0.507974 1.5,-1.128831 0,-0.777224 1.56632,-0.921051 5.02865,-0.461756 l 5.02865,0.667074 -0.69318,-2.788244 c -0.38125,-1.533533 -1.5528,-3.956798 -2.60344,-5.385033 -2.80318,-3.810633 -2.10102,-9.304522 1.23932,-9.696803 3.59399,-0.422069 4.91833,-3.900624 2.9655,-7.789319 -1.24269,-2.4745929 -1.86746,-2.8815134 -3.16628,-2.0622385 -1.22885,0.7751405 -2.42397,0.4060069 -4.96808,-1.534478 l -3.34998,-2.555152 -4.99058,4.4402688 C 201.74576,12.147636 197.025,15.7516 194,17.714296 c -3.025,1.962696 -8.57204,5.556458 -12.32676,7.986136 -8.68701,5.621356 -11.48348,5.5506 -13.65324,-0.345454 l -1.52537,-4.145021 -3.64933,2.116439 c -3.02072,1.751869 -4.05379,1.91778 -5.99732,0.963163 -5.58235,-2.741928 -8.93275,-2.258328 -8.28474,1.19583 0.77197,4.114993 -1.49266,6.014611 -7.17033,6.014611 -3.42138,0 -4.49863,0.436606 -5.27354,2.137352 -0.8356,1.833955 -0.70027,2.065812 0.95339,1.633369 1.4737,-0.38538 1.92724,0.01616 1.92724,1.706267 0,1.308086 -0.75377,2.407367 -1.8467,2.693173 -2.13107,0.557289 -1.84973,4.506966 0.45744,6.421744 C 139.70869,47.833047 139.35269,51 137.05902,51 c -2.20225,0 -3.57301,1.564304 -2.14443,2.447214 0.52097,0.321975 1.22987,0.128069 1.57533,-0.430902 1.16251,-1.880975 3.01258,-1.03726 4.34979,1.983688 0.94689,2.139183 2.02122,3 3.74411,3 2.67213,0 3.33531,2.43332 0.91618,3.361626 -0.825,0.316583 -1.5,1.242367 -1.5,2.057299 0,0.814932 -0.7875,1.954055 -1.75,2.531385 -1.66667,0.999705 -1.66667,1.099675 0,2.09938 0.9625,0.57733 1.75,1.705973 1.75,2.508097 0,0.802124 1.8,2.178624 4,3.05889 2.2,0.880265 4,1.911907 4,2.292538 0,1.366695 -2.51573,6.075345 -3.25,6.082983 C 148.3375,81.996489 148,82.45 148,83 c 0,1.603658 2.45844,1.155374 4.56144,-0.831754 z"
       id="path24" />
    <path
       style="fill:#000000;fill-opacity:0;stroke:#000000;stroke-opacity:1"
       d="M 98.020352,92.92778 C 98.802351,91.721525 103.80818,90 106.53371,90 c 1.69768,0 2.23879,-0.429277 1.84259,-1.461764 -0.30851,-0.803971 0.16255,-2.912027 1.04681,-4.68457 1.08812,-2.181186 1.27956,-3.550995 0.59232,-4.238235 C 107.84454,77.444539 109.12894,70 111.67438,70 c 0.9125,0 1.27494,-0.656539 0.96606,-1.75 -1.5375,-5.442899 -1.76181,-10.250049 -0.47834,-10.251217 2.95676,-0.0027 0.92488,-13.519013 -2.18045,-14.504606 -1.03364,-0.328065 -2.18241,-1.55137 -2.55283,-2.718455 -0.37042,-1.167085 -1.51844,-3.028919 -2.55116,-4.137409 C 103.74211,35.419443 103,33.160258 103,30.922223 103,27.579492 99.846785,21.703801 98.748505,23 c -0.23301,0.275 -2.143035,3.128979 -4.2445,6.342177 -2.101466,3.213197 -4.537057,6.108562 -5.412426,6.434146 -0.875368,0.325583 -2.137935,1.349625 -2.805704,2.275648 -0.667769,0.926023 -2.570511,1.954956 -4.228317,2.286517 -2.216541,0.443309 -3.483035,1.588729 -4.785875,4.328357 -1.409969,2.964901 -2.860196,4.161485 -7.103239,5.860889 l -5.331557,2.135371 2.581557,1.6915 C 68.8383,55.284931 70,56.710732 70,57.523053 70,58.606842 71.197884,59 74.5,59 c 2.475,0 4.5,0.45 4.5,1 0,0.55 0.675,1 1.5,1 0.841236,0 1.5,0.892458 1.5,2.032119 0,1.117665 -0.675,3.647621 -1.5,5.622124 C 79.675,70.628746 79,72.639292 79,73.122124 79,73.604956 79.675,74 80.5,74 c 1,0 1.5,1 1.5,3 0,2.765917 0.275028,3 3.524751,3 4.102841,0 6.5886,3.951739 4.551924,7.236431 -1.913903,3.086689 -1.369924,6.653016 0.923325,6.053318 1.168376,-0.305537 2,-0.03068 2,0.661007 0,1.268326 4.072965,0.438395 5.020352,-1.022976 z"
       id="path23" />
    <path
       style="fill:#000000;fill-opacity:0;stroke:#000000;stroke-opacity:1"
       d="m 259.32061,95.633444 c 1.47201,-2.246583 1.42085,-2.527703 -0.84802,-4.659191 -3.17942,-2.986912 -4.83343,-8.247297 -4.16355,-13.241655 0.57921,-4.318297 -5.11383,-13.216578 -9.80904,-15.33165 -1.23593,-0.556754 -2.3472,-2.463743 -2.90882,-4.991658 -0.70362,-3.167058 -1.54816,-4.332033 -3.74034,-5.15949 -1.55733,-0.587828 -3.27473,-2.234508 -3.81643,-3.659289 C 233.24055,46.502501 232.38835,46 229.64111,46 226.94882,46 225.49327,45.18151 222.71315,42.10425 219.17168,38.184263 211,35.259612 211,37.912102 211,38.510446 210.325,39 209.5,39 c -0.825,0 -1.5,0.441427 -1.5,0.980948 0,0.539521 -1.09925,1.256842 -2.44277,1.594045 -3.53097,0.886216 -3.80295,4.598485 -0.44465,6.068952 3.95985,1.733862 4.75589,10.72267 1.27728,14.422912 -1.8928,2.013392 -2.27971,3.233902 -1.79439,5.66048 C 205.455,72.025024 203.35296,78 200.98146,78 c -5.51741,0 -1.82769,4.179539 3.97896,4.507171 4.63687,0.261628 7.45039,2.623132 6.54055,5.489762 -0.72852,2.295378 -0.69122,2.304141 8.63772,2.029366 3.90266,-0.114949 6.91495,0.251471 7.30901,0.889083 C 227.81638,91.511922 228.99148,92 230.05902,92 231.12656,92 232,92.675 232,93.5 c 0,0.825 0.68912,1.5 1.53138,1.5 0.84227,0 1.79041,0.675 2.10699,1.5 0.38199,0.995452 1.96917,1.505151 4.71862,1.515313 4.71574,0.01743 5.87012,0.585307 7.50585,3.692387 l 1.16225,2.2077 4.36449,-2.94556 c 2.40047,-1.620057 5.06943,-4.021435 5.93103,-5.336396 z"
       id="path22" />
    <path
       style="fill:#000000;fill-opacity:0;stroke:#000000;stroke-opacity:1"
       d="m 135.74344,113.37143 c 1.98613,-0.5323 2.17219,-1.04687 1.62219,-4.48635 C 136.84431,105.62488 137.02364,105 138.4806,105 c 1.3575,0 1.59789,-0.55113 1.10208,-2.52662 -0.47883,-1.90779 0.0997,-3.439767 2.36204,-6.254971 2.11686,-2.634144 2.82389,-4.387236 2.4091,-5.973383 C 144.02406,88.983999 144.22133,88 144.80391,88 c 0.57045,0 1.35447,-1.4625 1.74227,-3.25 0.38779,-1.7875 0.98605,-3.475 1.32945,-3.75 3.26693,-2.616189 2.94414,-4.854954 -0.9231,-6.402318 C 144.74564,73.714661 143,72.336279 143,71.476712 143,70.629997 142.325,69.678209 141.5,69.361626 140.675,69.045044 140,67.982312 140,67 c 0,-0.982312 0.675,-2.045044 1.5,-2.361626 0.825,-0.316583 1.5,-1.242367 1.5,-2.057299 0,-0.814932 0.7875,-1.940371 1.75,-2.500976 1.50559,-0.876925 1.37763,-1.023529 -0.91618,-1.04969 -1.96246,-0.02238 -3.00351,-0.792474 -3.94419,-2.917613 -1.07647,-2.431926 -1.55882,-2.711829 -3.05885,-1.775041 -1.31669,0.822285 -2.08262,0.810405 -2.9386,-0.04558 C 132.26003,52.66003 133.54688,50 135.96862,50 c 2.38539,0 2.55083,-0.751986 0.64267,-2.921259 -2.60846,-2.965409 -2.98744,-7.747113 -0.6622,-8.355176 1.128,-0.294979 2.05091,-0.986326 2.05091,-1.536326 0,-0.55 -0.9,-0.764644 -2,-0.476988 -2.38715,0.624253 -2.5474,-0.751013 -0.53988,-4.633127 1.68624,-3.260827 1.09433,-4.440329 -1.43547,-2.860448 -2.3737,1.482401 -4.84926,0.374844 -6.01491,-2.69105 -1.29928,-3.417361 -6.39973,-3.428812 -11.4146,-0.02563 -2.56609,1.741394 -5.03597,2.5 -8.13955,2.5 -5.09336,0 -6.17281,2.779657 -2.57793,6.638313 1.03272,1.10849 2.18074,2.970324 2.55116,4.137409 0.37042,1.167085 1.4956,2.382902 2.5004,2.701815 C 114.2681,43.537255 116.5183,59 113.33364,59 c -0.92014,0 -1.28384,0.653411 -0.97408,1.75 1.6728,5.921871 1.77726,10.25 0.24739,10.25 -2.16536,0 -3.14213,4.631495 -1.58885,7.533813 1.05569,1.972591 1.01272,2.918334 -0.25117,5.527992 -1.77738,3.669883 -1.30327,6.449121 1.42629,8.360981 1.06918,0.748882 1.80693,1.972616 1.63944,2.719409 -0.40381,1.80043 7.80812,9.642775 11.91734,11.380985 1.84315,0.77966 3.25,2.10667 3.25,3.06555 0,0.92993 0.7875,2.28858 1.75,3.01922 2.03847,1.54743 2.0575,1.55034 4.99344,0.76348 z"
       id="path21" />
    <path
       style="fill:#000000;fill-opacity:0;stroke:#000000;stroke-opacity:1"
       d="m 71.831284,113.50205 c 0.18446,-0.18446 -0.602117,-1.27288 -1.747951,-2.41872 -2.152786,-2.15278 -2.521697,-3.7774 -1.476344,-6.50154 0.76032,-1.98137 3.03069,-2.05164 4.107691,-0.12715 1.553342,2.77567 3.60625,-0.0483 3.717982,-5.114369 C 76.550882,93.980001 77.3942,92 79.559017,92 80.351558,92 81,91.518702 81,90.930449 c 0,-0.588253 1.0125,-0.917958 2.25,-0.732677 3.125417,0.467943 6.844811,-3.761258 5.803563,-6.599041 -0.553815,-1.509348 -1.792778,-2.18589 -4.411818,-2.409096 C 81.349033,80.909016 81,80.597528 81,77.939635 81,75.993293 80.493155,75 79.5,75 78.675,75 78,74.154956 78,73.122124 78,72.089292 78.675,69.628746 79.5,67.654243 80.325,65.67974 81,63.599784 81,63.032119 81,62.464453 80.325,62 79.5,62 78.675,62 78,61.55 78,61 78,60.45 76.001558,60 73.559017,60 71.116476,60 68.839919,60.45 68.5,61 67.74619,62.21969 55.904728,62.27857 50.779519,61.088112 47.991822,60.440599 46.770223,60.571939 45.907074,61.611969 45.273494,62.375386 43.895211,63 42.844222,63 c -1.050989,0 -3.485889,1.575 -5.410889,3.5 -1.925,1.925 -4.333245,3.5 -5.351656,3.5 -4.941803,0 -5.660297,5.927946 -1.405293,11.594391 3.229202,4.300372 2.992436,7.794259 -0.754419,11.132722 -5.098334,4.542636 -2.219478,12.539977 4.950138,13.751277 2.17238,0.36702 4.734602,1.53453 5.693827,2.59446 2.252313,2.48878 5.644011,2.45764 7.93407,-0.0729 3.248205,-3.58923 17.5,0.55306 17.5,5.08638 0,0.98917 4.731962,0.51499 5.831284,-0.58433 z"
       id="path20" />
    <path
       style="fill:#000000;fill-opacity:0;stroke:#000000;stroke-opacity:1"
       d="m 137.8429,131.3786 c 1.46141,-0.33708 6.4821,-1.94929 11.1571,-3.58269 4.675,-1.6334 11.19361,-3.3615 14.48579,-3.84024 3.29219,-0.47873 6.14219,-1.3396 6.33334,-1.91305 0.19114,-0.57344 1.55179,-1.04262 3.02366,-1.04262 1.59311,0 3.18159,-0.80939 3.92514,-2 0.68696,-1.1 2.0102,-2 2.94054,-2 1.31564,0 1.42486,-0.26667 0.49153,-1.2 -3.14655,-3.14655 -1.45176,-7.09711 2.8,-6.52683 2.2,0.29509 4,0.43601 4,0.31317 0,-0.12283 -0.70583,-2.60013 -1.56851,-5.5051 -2.06379,-6.949517 -1.44561,-8.418445 3.30917,-7.863351 4.37898,0.511221 7.17227,-2.001114 7.22607,-6.499274 0.0205,-1.714827 0.70433,-3.028976 1.78327,-3.427058 2.83987,-1.047788 3.25672,-2.59855 1.10384,-4.106485 -1.43105,-1.002344 -1.84399,-2.088169 -1.4266,-3.751188 0.51924,-2.068843 0.15131,-2.420777 -3.16991,-3.032077 -2.06653,-0.380364 -4.83052,-1.526374 -6.14219,-2.546689 C 186.80347,71.834803 185.13833,71 184.41483,71 c -0.7235,0 -1.67531,-0.5625 -2.11514,-1.25 -2.10373,-3.288355 -5.19059,-3.846141 -6.8944,-1.245797 -1.69764,2.590922 -5.20133,3.299759 -7.07062,1.430468 -1.00579,-1.00579 -6.73904,4.008338 -14.18963,12.409814 C 152.84981,83.805018 150.89518,85 149.80142,85 c -1.14766,0 -2.20984,0.8458 -2.51167,2 -0.28766,1.1 -0.8784,2 -1.31276,2 -0.43436,0 -0.55416,0.900904 -0.26621,2.002009 0.33027,1.262977 -0.52251,3.373441 -2.31016,5.71717 -1.87446,2.457545 -2.73488,4.657171 -2.54179,6.497991 0.20953,1.99751 -0.15601,2.78283 -1.29528,2.78283 -1.2846,0 -1.46841,0.74277 -0.96417,3.89612 0.58864,3.68114 0.46328,3.93121 -2.27188,4.53195 -2.71371,0.59603 -2.96418,1.07576 -4.00168,7.6647 -1.25121,7.94613 -0.80224,11.30403 1.3985,10.45952 0.80382,-0.30845 2.65718,-0.83661 4.11858,-1.17369 z"
       id="path19" />
    <path
       style="fill:#000000;fill-opacity:0;stroke:#000000;stroke-opacity:1"
       d="m 27.418501,134.40939 c 0.505175,-1.14984 2.294554,-2.49984 3.976398,-3 2.255281,-0.6707 3.298918,-1.76243 3.97616,-4.15939 C 35.876103,125.4625 36.899224,124 37.64466,124 38.390097,124 39,123.325 39,122.5 c 0,-0.83333 0.888889,-1.5 2,-1.5 1.1,0 2,0.35198 2,0.78218 0,0.4302 3.373658,0.7677 7.497018,0.75 5.312145,-0.0228 7.497887,-0.39647 7.5,-1.28218 0.0016,-0.6875 0.660452,-1.25 1.464027,-1.25 C 60.990361,120 65,116.22807 65,114.78941 65,110.82604 52.302985,106.90274 49.5,110 c -2.348874,2.59548 -7.616168,2.6341 -9.93407,0.0729 -0.959225,-1.05993 -3.521447,-2.22744 -5.693827,-2.59446 -7.419977,-1.2536 -10.451828,-10.854479 -4.969285,-15.736104 3.737292,-3.327665 3.858639,-5.055183 0.650537,-9.261221 -3.435831,-4.504607 -4.06095,-7.776743 -2.067051,-10.819818 3.854866,-5.883269 0.365598,-7.592401 -7.824559,-3.832666 -3.38896,1.555719 -7.573715,3.443202 -9.299455,4.194407 l -3.1377103,1.365826 2.3877101,1.878173 c 2.9757902,2.340757 2.9812232,3.38837 0.040195,7.750878 -2.3785698,3.5282 -2.4076674,5.27071 -0.1332911,7.982135 2.3439673,2.794388 2.8345583,7.951627 0.9540783,10.02953 -1.6409455,1.81323 -1.5659545,1.98324 1.73351,3.92997 4.459797,2.63134 8.280349,10.40588 7.462356,15.18534 -1.357398,7.93116 -1.982981,9.82921 -3.77379,11.44987 C 13.139466,134.08875 13.553077,135 17.440983,135 c 1.892541,0 3.735003,0.47573 4.09436,1.05719 1.051068,1.70066 4.883645,0.6272 5.883158,-1.6478 z"
       id="path18" />
    <path
       style="fill:#000000;fill-opacity:0;stroke:#000000;stroke-opacity:1"
       d="m 101.60849,164.40326 c 1.02216,0.39224 2.57571,-0.31474 4.1491,-1.88813 1.38333,-1.38332 2.82043,-2.51513 3.19356,-2.51513 2.02615,0 3.90867,-6.91293 2.74322,-10.07356 -0.94246,-2.55588 -0.93073,-3.32911 0.0556,-3.66608 0.6875,-0.23486 1.25689,-1.40203 1.26531,-2.59369 0.0264,-3.73598 1.58078,-4.922 7.1281,-5.43891 2.9969,-0.27926 5.70887,-1.10015 6.15628,-1.86345 0.43983,-0.75037 1.73358,-1.36431 2.875,-1.36431 1.79167,0 1.98976,-0.42774 1.44938,-3.12965 -0.34426,-1.72131 -0.0868,-6.05537 0.57203,-9.63124 1.14581,-6.21854 1.10232,-6.57905 -0.99907,-8.28064 -1.20833,-0.97848 -2.197,-2.51739 -2.197,-3.41979 0,-0.9024 -1.4625,-2.26728 -3.25,-3.03305 -4.16998,-1.78644 -13.04441,-10.122403 -12.50358,-11.744903 1.37945,-4.138328 -8.92774,-5.936555 -12.656238,-2.208052 C 97.754802,95.388055 92,96.651158 92,95.21862 c 0,-0.56726 -0.9,-0.796025 -2,-0.508369 -1.654363,0.432626 -2.002646,0.0276 -2.015313,-2.34362 -0.01062,-1.98863 -0.278668,-2.451001 -0.875154,-1.509619 -0.539466,0.851392 -1.651555,1.105732 -2.984687,0.682613 C 82.864301,91.139543 82,91.299395 82,91.932612 82,92.519676 81.340833,93 80.535184,93 c -1.764543,0 -3.887733,3.620547 -2.98231,5.085552 2.541408,4.112088 -3.179473,11.174948 -5.965486,7.364848 -1.192101,-1.6303 -1.30397,-1.63136 -1.922975,-0.0183 C 68.941169,107.31689 70.509424,111 72.035184,111 72.565833,111 73,111.9 73,113 c 0,1.11111 -0.666667,2 -1.5,2 -2.198046,0 -1.858217,0.8277 1.5,3.65345 3.335955,2.80702 3.929678,5.34653 1.25,5.34658 -0.9625,2e-5 -2.962691,1.51988 -4.44487,3.37748 l -2.694869,3.37745 2.427682,2.28069 c 1.335225,1.25437 2.690741,3.10951 3.012257,4.12252 0.321517,1.01301 1.229251,1.84183 2.017188,1.84183 2.124993,0 1.737302,3.76852 -0.459417,4.46573 -2.326151,0.73829 -3.401594,4.20762 -1.527262,4.92687 0.747831,0.28697 1.650861,1.68187 2.006733,3.09978 0.501292,1.9973 1.618746,2.8379 4.960829,3.73177 3.45966,0.92532 4.663808,1.87337 6.08157,4.78813 1.420591,2.92058 2.219734,3.54797 4.06897,3.19447 C 90.964465,162.9648 92,163.23942 92,163.817 c 0,1.36155 5.129651,2.00939 6.737265,0.85088 0.680496,-0.4904 1.972545,-0.60948 2.871225,-0.26462 z"
       id="path17" />
    <path
       style="fill:#000000;fill-opacity:0;stroke:#000000;stroke-opacity:1"
       d="m 84.900117,164.62035 c 2.046175,-2.46549 -1.57188,-7.11775 -6.576419,-8.45626 C 75.654822,155.45027 74,154.43211 74,153.50384 c 0,-0.82711 -0.906853,-2.41069 -2.01523,-3.51907 -2.413179,-2.41318 -1.793269,-6.59339 1.114644,-7.51632 C 75.356605,141.75204 75.640931,140 73.5,140 c -0.825,0 -1.5,-0.43434 -1.5,-0.9652 0,-0.53087 -1.35,-2.50277 -3,-4.38202 -3.808665,-4.33783 -0.991802,-11.63753 4.5,-11.66142 1.681446,-0.007 1.413344,-0.5648 -1.683246,-3.50003 -4.391353,-4.16254 -4.823638,-4.21871 -7.629805,-0.99133 -1.195547,1.375 -2.851698,2.5 -3.680336,2.5 -0.828637,0 -1.506762,0.5625 -1.506944,1.25 -2.36e-4,0.89006 -2.447843,1.29358 -8.5,1.40133 C 45.824851,123.73456 42,123.39706 42,122.90133 42,122.4056 41.55,122 41,122 c -0.55,0 -1,0.675 -1,1.5 0,0.825 -0.609903,1.5 -1.35534,1.5 -0.745436,0 -1.768557,1.4625 -2.273601,3.25 -0.692191,2.44987 -1.712582,3.48556 -4.14466,4.2068 C 30.451879,132.98303 29,133.8476 29,134.37806 c 0,0.53045 -0.686353,1.72287 -1.525228,2.64982 -1.366971,1.51048 -1.366971,1.8167 0,2.95118 2.479885,2.05812 1.834019,5.73277 -1.432021,8.14745 l -2.957248,2.18639 2.457248,2.92028 c 1.351487,1.60615 2.457249,3.9025 2.457249,5.103 0,2.93394 3.414957,5.04729 5.95729,3.68668 2.442778,-1.30734 6.740809,-1.32036 7.54271,-0.0229 0.339919,0.55 2.099326,1 3.909794,1 1.810468,0 4.71831,0.4973 6.461873,1.10511 2.258959,0.78747 3.541494,0.79689 4.462231,0.0327 C 57.861716,162.86988 67,162.86043 67,164.12682 c 0,1.23954 3.750259,1.08629 4.536183,-0.18537 0.712982,-1.15362 6.33014,-0.3275 7.913817,1.1639 1.409958,1.32781 4.147825,1.08417 5.450117,-0.485 z"
       id="path16" />
    <path
       style="fill:#000000;fill-opacity:0;stroke:#000000;stroke-opacity:1"
       d="m 218.98798,205.75 c 1.30025,-1.7875 2.95988,-3.60986 3.68806,-4.04969 C 223.40422,201.26048 224,200.0696 224,199.0539 c 0,-1.01569 1.575,-3.22958 3.5,-4.91976 4.03053,-3.53885 4.27066,-4.88469 1.5,-8.40701 -1.1,-1.39842 -2,-2.97533 -2,-3.50423 0,-0.5289 -1.84897,-3.28385 -4.10883,-6.12211 -2.8507,-3.58034 -3.9438,-5.79152 -3.56989,-7.22138 0.30009,-1.14752 -0.31482,-3.46109 -1.38743,-5.22016 -1.05951,-1.73759 -1.92806,-4.06591 -1.93011,-5.17406 -0.002,-1.10814 -0.90374,-3.69401 -2.00374,-5.74637 -2.94314,-5.49127 -2.55199,-8.30483 1.84979,-13.30552 2.11739,-2.40547 4.8404,-6.97453 6.05114,-10.15345 2.91677,-7.65827 14.89708,-20.4185 21.0222,-22.39075 5.0849,-1.6373 5.20894,-1.76986 3.92987,-4.19979 -1.62528,-3.087658 -2.78606,-3.656589 -7.49601,-3.673997 C 236.60754,99.005151 235.02036,98.495452 234.63837,97.5 234.32179,96.675 233.37365,96 232.53138,96 231.68912,96 231,95.325 231,94.5 c 0,-0.825 -0.87344,-1.5 -1.94098,-1.5 -1.06754,0 -2.25614,-0.509935 -2.64133,-1.133188 -0.46723,-0.755981 -2.92043,-0.947065 -7.36981,-0.574045 -7.35679,0.616766 -9.58481,-0.131556 -8.84255,-2.969937 1.00175,-3.830695 -6.15471,-6.431917 -8.62734,-3.135859 -0.5929,0.790334 -1.86549,1.732461 -2.82799,2.093615 -1.0762,0.403819 -1.76281,1.72755 -1.78327,3.438029 -0.0549,4.586371 -3.22313,7.511512 -7.30619,6.745525 -4.40437,-0.826265 -4.89188,0.116811 -3.11405,6.02408 2.22902,7.40647 2.088,7.79477 -2.54649,7.01178 -3.97394,-0.67139 -6.05938,2.1092 -3,4 1.54109,0.95245 1.18332,3.5 -0.49153,3.5 -0.82034,0 -2.05358,0.9 -2.74054,2 -0.74355,1.19061 -2.33203,2 -3.92514,2 -1.47187,0 -2.83252,0.46918 -3.02366,1.04262 -0.19115,0.57345 -3.04115,1.43432 -6.33334,1.91305 -3.29218,0.47874 -9.81079,2.20041 -14.48579,3.82594 -4.675,1.62553 -10.64283,3.52463 -13.26184,4.22022 -3.8101,1.01195 -4.53859,1.53371 -3.64489,2.61055 0.80071,0.9648 0.81879,2.20113 0.0639,4.36673 -1.08043,3.09931 -0.42591,3.88967 1.56907,1.89469 1.18485,-1.18485 11.08872,2.1474 14.35254,4.82906 0.86831,0.71343 2.31925,1.29714 3.22432,1.29714 0.90507,0 2.30478,1.27476 3.11048,2.8328 2.06192,3.98732 12.82016,9.1672 19.03962,9.1672 4.56381,0 4.75576,0.12228 6.27898,4 0.86418,2.2 1.89958,4 2.30089,4 0.40131,0 2.02055,1.29277 3.59831,2.87283 1.57776,1.58005 4.47798,3.16077 6.44493,3.51272 5.93492,1.06192 7.52142,2.75729 6.00533,6.41744 -2.24135,5.41111 -2.07458,9.45525 0.35642,8.6429 5.50833,-1.84066 10.69447,-1.6808 12.62286,0.38908 1.04965,1.12667 2.6313,2.45302 3.51478,2.94744 1.30063,0.72786 1.42668,1.54958 0.66235,4.31777 -0.6345,2.29797 -0.58961,3.98064 0.13692,5.13243 0.84617,1.34147 0.67249,2.01223 -0.79979,3.08879 -1.03438,0.75635 -1.56038,1.89346 -1.1689,2.5269 1.1205,1.813 2.04438,1.38989 4.58174,-2.0983 z"
       id="path15" />
    <path
       style="fill:#000000;fill-opacity:0;stroke:#000000;stroke-opacity:1"
       d="m 34.906,207.75 c 0.602127,-1.58177 2.302473,-2.64093 5.725249,-3.56631 2.677813,-0.72396 5.650145,-1.73646 6.605182,-2.25 C 49.629939,200.64668 51,200.76527 51,202.25945 c 0,1.77049 3.428365,3.71187 4.923323,2.78794 0.938008,-0.57972 0.85443,-0.9187 -0.339477,-1.37684 C 53.527541,202.88147 53.501092,199 55.55202,199 c 0.85361,0 2.026601,-1.36139 2.606646,-3.02531 0.966686,-2.77303 1.337588,-2.97222 4.447981,-2.38871 2.09726,0.39345 3.393353,0.23788 3.393353,-0.4073 0,-2.23078 4.02802,-2.36564 5.786712,-0.19375 2.106866,2.60187 4.212977,1.97847 6.522055,-1.93049 1.051638,-1.78028 4.091034,-4.03182 7.947082,-5.88708 4.270909,-2.05487 5.533118,-3.03003 3.994151,-3.08581 -1.2375,-0.0448 -2.25,-0.4958 -2.25,-1.00209 0,-0.5063 -1.380406,-1.22374 -3.06757,-1.5943 -3.494637,-0.76755 -4.937375,-3.24223 -2.84491,-4.87977 C 84.228086,172.93021 83.376721,167 80.995659,167 c -1.032694,0 -2.122533,-0.39627 -2.421864,-0.8806 -0.777438,-1.25792 -5.519189,-2.01677 -6.156679,-0.98529 -0.654558,1.0591 -6.416901,1.16315 -6.417658,0.11589 -7.35e-4,-1.01532 -7.04982,-0.88447 -9.324528,0.17308 -1.075539,0.50004 -3.381963,0.38206 -5.61602,-0.28728 C 48.973888,164.51111 45.94767,164 44.33398,164 c -1.613689,0 -3.460467,-0.52649 -4.10395,-1.16997 -0.893294,-0.89329 -2.11533,-0.85797 -5.167572,0.14936 -3.143208,1.03735 -4.310218,1.05988 -5.460291,0.1054 C 28.090913,161.83056 26,164.16443 26,167.10552 c 0,0.68035 -0.7875,2.11018 -1.75,3.1774 -1.688491,1.87221 -1.598833,2.07079 2.550846,5.64981 9.714157,8.37826 9.51827,15.19352 -0.603611,21.00069 -1.542033,0.88471 -1.491486,1.12034 0.552765,2.57687 1.460589,1.04066 2.25,2.63577 2.25,4.54641 0,1.97641 0.503069,2.9433 1.531385,2.9433 0.842261,0 1.790406,0.675 2.106989,1.5 0.785493,2.04696 1.263043,1.88902 2.267626,-0.75 z"
       id="path14" />
    <path
       style="fill:#000000;fill-opacity:0;stroke:#000000;stroke-opacity:1"
       d="m 162.71025,214 c 0.28766,-1.1 0.93636,-2 1.44157,-2 0.51787,0 0.46699,-0.84374 -0.11664,-1.93426 -1.50077,-2.80422 -1.28762,-3.76646 0.96482,-4.35549 1.43682,-0.37574 2,-1.36401 2,-3.50964 0,-3.70752 1.34836,-4.25223 8.21821,-3.31997 6.27706,0.85181 7.78179,0.54618 7.78179,-1.5806 0,-1.04097 0.64218,-1.36537 2,-1.01029 1.35348,0.35394 2,0.0307 2,-1 0,-1.04964 0.64574,-1.35415 2.07758,-0.97971 1.61451,0.4222 2.29721,-0.0867 3.0629,-2.28319 0.54193,-1.55457 1.85887,-3.05492 2.92655,-3.33413 1.20958,-0.31631 1.72778,-1.06387 1.3749,-1.98345 -0.31147,-0.81169 0.12529,-3.13105 0.97058,-5.15413 l 1.53691,-3.67833 -3.44259,-1.4384 C 193.6134,175.64728 191.26082,175 190.27887,175 c -0.98195,0 -3.05955,-1.35 -4.61688,-3 -1.55734,-1.65 -3.17512,-3 -3.59507,-3 -0.41995,0 -1.4706,-1.8 -2.33478,-4 -1.52322,-3.87772 -1.71517,-4 -6.27898,-4 -6.21946,0 -16.9777,-5.17988 -19.03962,-9.1672 -0.8057,-1.55804 -2.26334,-2.8328 -3.23922,-2.8328 -0.97588,0 -2.27869,-0.50437 -2.89514,-1.12082 -1.86743,-1.86743 -12.25609,-5.72555 -12.84617,-4.77079 -1.46954,2.37777 -4.65213,0.90079 -3.9643,-1.83975 1.12937,-4.49975 1.10549,-4.63382 -0.90261,-5.06799 -1.06365,-0.22997 -2.41365,0.2378 -3,1.03948 -0.59955,0.81973 -3.41027,1.68281 -6.42269,1.97219 -5.54379,0.53256 -7.10174,1.72468 -7.1281,5.45435 -0.008,1.19166 -0.50143,2.3287 -1.09559,2.52676 -0.75149,0.25049 -0.70396,1.186 0.15618,3.0738 1.2246,2.68772 -1.09265,10.73277 -3.09141,10.73277 -0.39147,0 -1.89109,1.17932 -3.33248,2.62072 -1.72913,1.72912 -3.30613,2.44149 -4.63537,2.09388 -1.10806,-0.28976 -2.275188,-0.10528 -2.593625,0.40996 -0.693449,1.12203 -7.656765,-0.003 -8.551693,-1.38152 -1.68391,-2.59404 -6.374277,1.74363 -6.237342,5.76832 0.08873,2.60797 -0.417836,4.34332 -1.5,5.13853 C 81.553178,176.81151 84.77447,179 88.0651,179 88.579295,179 89,179.39992 89,179.88871 c 0,2.14788 7.183208,2.29474 8.666401,0.17718 C 98.462255,178.92965 99.707791,178 100.43426,178 c 0.72647,0 1.88105,-0.675 2.56574,-1.5 0.68469,-0.825 1.86905,-1.5 2.63192,-1.5 1.80759,0 1.30804,10.80104 -0.55274,11.95106 -0.87026,0.53785 -0.41996,0.99758 1.43257,1.46253 2.77954,0.69762 3.0826,3.0198 1.02269,7.83641 -0.50056,1.17045 -0.29902,1.76102 0.60857,1.78327 2.14882,0.0527 6.12451,3.82719 5.56552,5.2839 -0.3393,0.8842 0.94935,1.71144 3.89211,2.4985 2.6502,0.70883 4.39936,1.7565 4.39936,2.63504 0,1.00008 0.78564,0.67275 2.5,-1.04162 1.375,-1.375 2.5,-2.92954 2.5,-3.45454 0,-1.26008 2.33149,-1.22306 3.6119,0.0573 2.55245,2.55245 9.41829,5.18709 14.8881,5.71305 4.57901,0.4403 6.82367,1.25169 9.47784,3.426 4.07305,3.33664 6.99791,3.6578 7.73241,0.84905 z"
       id="path13" />
    <path
       style="fill:#000000;fill-opacity:0;stroke:#000000;stroke-opacity:1"
       d="m 87.826713,230.31614 c 0.780996,-0.78099 1.551866,-3.18814 1.713046,-5.34922 0.582326,-7.80779 1.354257,-9.36314 5.759245,-11.60421 3.115521,-1.58504 4.124686,-2.65645 3.905663,-4.14655 -0.258958,-1.76179 0.449937,-2.09576 5.755623,-2.71155 8.00975,-0.92963 9.7755,-7.50461 2.0154,-7.50461 -1.17669,0 -1.04832,-1.56962 0.54835,-6.70465 0.56132,-1.80526 0.21362,-2.32309 -1.91927,-2.85841 -2.57902,-0.64729 -3.57255,-2.94768 -1.56246,-3.61771 0.57326,-0.19109 1.21953,-2.52232 1.43613,-5.18052 0.37202,-4.56534 0.29606,-4.74461 -1.37104,-3.2359 -0.97069,0.87845 -2.28813,1.59719 -2.92767,1.59719 -0.63953,0 -1.724842,0.9 -2.411803,2 -0.686961,1.1 -1.990251,2 -2.8962,2 -3.588885,0 -14.883577,6.21148 -16.610466,9.13487 -2.340073,3.96142 -6.044227,4.85138 -8.34845,2.00578 -1.612147,-1.99091 -1.877015,-2.03359 -3.367969,-0.54264 -1.018949,1.01895 -2.70241,1.45909 -4.545901,1.18853 -2.486791,-0.36499 -3.075814,-0.005 -3.911295,2.39188 C 58.546662,198.73029 57.40563,200 56.55202,200 c -1.984497,0 -2.021615,1.88257 -0.05202,2.63837 2.122968,0.81466 1.861358,3.11216 -0.437452,3.84178 C 53.843504,207.18445 50,205.13723 50,203.25098 c 0,-0.88793 -0.524468,-0.9949 -1.75,-0.35692 -0.9625,0.50106 -3.775,1.48312 -6.25,2.18236 C 37.201014,206.43223 34.573734,208 37.100635,208 c 2.72353,0 6.653068,2.40157 8.540906,5.21984 1.022152,1.52592 2.660082,2.7757 3.639844,2.77728 0.979761,0.002 2.023873,0.63479 2.320247,1.40713 0.461981,1.2039 0.921192,1.20478 3.218615,0.006 3.988787,-2.08104 6.827275,-1.77114 7.690071,0.83959 0.733682,2.22005 0.749223,2.22195 1.167434,0.14307 0.282893,-1.40623 1.66512,-2.47883 4.156204,-3.22518 5.776376,-1.73064 16.86845,8.62867 15.304362,14.29333 -1.081935,3.91845 1.207412,4.33591 4.688395,0.85492 z"
       id="path12" />
    <path
       style="fill:#000000;fill-opacity:0;stroke:#000000;stroke-opacity:1"
       d="m 103.5,252.18275 c 1.1,-1.09284 3.35,-4.25626 5,-7.02983 3.07774,-5.17353 7.05645,-7.48863 8.59409,-5.00067 0.60945,0.9861 1.2042,0.88778 2.6736,-0.44201 1.03939,-0.94063 2.22208,-1.71024 2.6282,-1.71024 0.40613,0 2.27753,-1.63194 4.15868,-3.62653 3.73644,-3.96179 8.16178,-3.6405 10.51883,0.76368 1.40369,2.62282 4.90829,2.50882 4.21635,-0.13715 -0.4997,-1.91085 -0.0307,-2 10.52219,-2 8.70776,0 11.37776,-0.33255 12.61663,-1.57143 1.98569,-1.98569 2.0186,-4.31975 0.0714,-5.06694 C 162.74259,225.68724 162.46679,223 164.15499,223 c 0.69104,0 0.4902,-0.73458 -0.5,-1.82874 C 162.74474,220.16545 162,218.81545 162,218.17126 162,217.52707 160.97753,217 159.72784,217 c -1.24968,0 -3.83718,-1.28207 -5.75,-2.84905 -2.65417,-2.17431 -4.89883,-2.9857 -9.47784,-3.426 -5.53725,-0.53244 -11.49133,-2.81301 -15.04575,-5.76292 C 128.49587,204.16665 128,204.12234 128,204.8321 128,206.16434 123.26034,211 121.95455,211 121.42955,211 121,210.36902 121,209.59783 c 0,-2.62831 -5.57639,-3.63711 -13.39009,-2.42234 -6.16554,0.95854 -7.22706,1.41391 -7.17317,3.07714 0.0428,1.32003 -1.30403,2.64752 -4.159399,4.09974 -4.422989,2.24952 -5.433069,4.45295 -5.675237,12.38019 -0.05616,1.83827 -0.759211,3.74799 -1.562341,4.24382 -1.258666,0.77708 -1.224156,1.16239 0.25,2.79131 2.213709,2.44612 2.17512,4.92504 -0.09877,6.34511 C 87.306066,241.28995 87.27539,247 89.153992,247 91.705259,247 96,251.52543 96,254.21374 c 0,3.18523 3.092521,2.34777 7.5,-2.03099 z"
       id="path11" />
    <path
       style="fill:#000000;fill-opacity:0;stroke:#000000;stroke-opacity:1"
       d="M 85.071429,261 C 85.582143,261 86,260.15175 86,259.11501 c 0,-2.36697 4.576398,-5.45905 7.102078,-4.79857 C 94.199015,254.6033 95,254.29859 95,253.59444 95,252.31432 89.733875,248 88.171335,248 c -2.218254,0 -2.12822,-7.21433 0.112679,-9.0289 3.172138,-2.56864 0.07559,-6.19302 -4.507913,-5.27632 -3.17099,0.6342 -3.184211,0.57093 -1.416509,-6.77855 0.07722,-0.32107 -2.424443,-3.02107 -5.55926,-6 C 70.723445,215.14154 65,214.28228 65,219.14466 65,221.64243 61.949658,221.5235 61.289749,219 c -0.63615,-2.43264 -1.477938,-2.47906 -6.004365,-0.33113 -3.284271,1.55848 -3.578646,1.55848 -4.45082,0 -0.513669,-0.91788 -1.699084,-1.67016 -2.634254,-1.67175 -0.935171,-0.002 -2.548072,-1.2684 -3.584227,-2.81516 -2.645745,-3.94954 -6.826225,-5.6845 -9.600958,-3.98453 -1.826562,1.11907 -2.266142,1.05603 -3.120292,-0.44743 -1.21203,-2.1334 -3.751132,-2.28805 -4.523413,-0.27552 -0.578766,1.50824 1.054257,3.97838 8.178237,12.37056 4.393344,5.17544 6.936088,9.05055 11.360918,17.3139 2.853061,5.32808 2.871832,5.34108 7.724718,5.34937 5.519154,0.009 8.935741,1.56478 9.86437,4.49063 0.397972,1.2539 1.512955,2.00106 2.986165,2.00106 1.606769,0 3.033618,1.10441 4.507148,3.48863 3.485639,5.63989 8.963744,9.69751 10.720556,7.9407 C 83.499661,261.6432 84.560714,261 85.071429,261 Z"
       id="path10" />
    <path
       style="fill:#000000;fill-opacity:0;stroke:#000000;stroke-opacity:1"
       d="m 111.32016,302.11628 c -0.33873,-1.29529 0.38129,-2.16419 2.53138,-3.05478 1.65261,-0.68454 3.26755,-1.92947 3.58876,-2.76651 0.36068,-0.93992 1.34417,-1.32311 2.57185,-1.00206 1.33772,0.34982 1.98785,0.0244 1.98785,-0.99496 0,-1.11972 0.65737,-1.3498 2.52052,-0.88218 7.16638,1.79865 13.23958,-6.78036 10.97829,-15.50796 -0.46646,-1.80034 -0.15124,-3.11255 1.03194,-4.29573 1.50224,-1.50224 1.5546,-2.23561 0.44305,-6.20569 -1.45894,-5.21082 0.10863,-9.87962 3.05815,-9.10831 2.68337,0.70172 5.34518,-2.00782 5.40928,-5.50625 0.0516,-2.81587 0.71813,-3.57986 5.45278,-6.24993 3.25075,-1.83324 6.07916,-4.32886 7.11833,-6.2808 0.94837,-1.78139 2.28867,-3.91889 2.97843,-4.75 1.1047,-1.33108 0.0592,-1.51112 -8.77471,-1.51112 -9.53649,0 -10.00315,0.0982 -9.50581,2 0.66276,2.53439 -5.39621,2.98195 -6.36021,0.46981 -1.56242,-4.07161 -5.62097,-4.4623 -9.01134,-0.86746 -1.76242,1.86871 -3.62951,3.39765 -4.1491,3.39765 -0.51959,0 -1.50491,0.675 -2.1896,1.5 -1.35249,1.62965 -5,2.0627 -5,0.59362 0,-2.40771 -3.82542,0.57153 -6.5,5.0622 -5.39007,9.05005 -11.907233,13.5798 -15.03615,10.45089 C 92.090399,254.23326 87,256.57998 87,260.04762 c 0,0.99968 -0.9,2.10325 -2,2.45238 -2.829165,0.89794 -2.484398,2.05672 1.047158,3.51953 C 89.363037,267.39302 92,271.50453 92,275.30112 92,280.53937 94.014045,284 97.062641,284 c 3.236179,0 4.928889,2.28464 4.952419,6.68426 0.0362,6.7629 5.86289,16.49185 8.54429,14.26649 0.6788,-0.56336 1.02116,-1.83887 0.76081,-2.83447 z"
       id="path9" />
    <path
       style="fill:#000000;fill-opacity:0;stroke:#000000;stroke-opacity:1"
       d="m 249.11133,346.13345 c 1.16064,-0.0961 1.47735,-0.8343 1.13232,-2.6392 -0.26345,-1.37816 0.0957,-3.19821 0.79811,-4.04456 1.07604,-1.29655 0.70097,-2.12883 -2.38233,-5.28642 C 246.64674,332.10209 245,329.87215 245,329.20784 c 0,-1.46104 -1.64116,-1.59747 -2.5,-0.20784 -0.91754,1.48461 -5.08032,1.21061 -6.43665,-0.42367 -1.3964,-1.68256 -0.20003,-7.03965 2.82525,-12.65087 1.67203,-3.10126 1.77528,-4.14373 0.77977,-7.87341 -1.13677,-4.2589 -1.11316,-4.32849 2.53968,-7.48613 2.38281,-2.05977 4.26138,-4.93454 5.31048,-8.12659 1.90757,-5.80407 4.59058,-8.43933 8.59225,-8.43933 2.85226,0 3.83345,-1.2984 1.88922,-2.5 -0.55,-0.33992 -1,-2.44026 -1,-4.66743 0,-3.87354 -0.11422,-4.02072 -2.63042,-3.38919 -8.4642,2.12438 -10.44896,-11.74829 -2.79291,-19.52122 5.42538,-5.5082 6.80471,-10.88428 3.92153,-15.28456 -2.06632,-3.15361 -3.58037,-3.33692 -5.26613,-0.6376 -2.30734,3.69464 -8.23207,1.15222 -8.23207,-3.53254 0,-6.48272 -5.28066,-4.60405 -10.63219,3.78254 -2.70524,4.23948 -4.25702,4.63489 -6.86781,1.75 -4.04951,-4.47466 -8.44529,-2.01425 -8.48635,4.75 -0.0102,1.67972 -0.59885,2.25 -2.32252,2.25 -4.30496,0 -5.63105,2.09665 -7.5898,12 -2.05065,10.368 -2.88714,13 -4.13159,13 -0.44896,0 -2.25285,1.20879 -4.00864,2.68619 l -3.19236,2.68619 0.43637,8.31381 c 0.47048,8.96389 -0.2536,9.96378 -5.27085,7.27863 -2.57975,-1.38064 -2.45378,-0.83486 0.98246,4.25668 4.45494,6.60096 6.33865,11.97664 5.22405,14.90825 -2.62705,6.90966 1.88292,10.57077 11.75109,9.53934 6.19889,-0.64791 9.82993,0.74962 8.88087,3.41811 -0.27636,0.77704 -0.0674,2.25655 0.46448,3.2878 0.99557,1.93048 -0.17658,5.33544 -3.02828,8.79678 -2.86235,3.47428 4.13226,5.9666 12.46566,4.44177 3.63595,-0.66531 4.31789,-0.49611 5.28519,1.31129 0.61082,1.14134 1.9682,2.07516 3.01639,2.07516 1.04819,0 2.11594,0.3375 2.37279,0.75 0.39976,0.64202 6.31294,0.83479 11.76237,0.38345 z"
       id="path8" />
    <path
       style="fill:#000000;fill-opacity:0;stroke:#000000;stroke-opacity:1"
       d="m 151.5,356.10492 c 3.29012,-2.64019 3.32621,-9.68074 0.0538,-10.50205 C 148.92656,344.94346 147.59942,339 150.07946,339 c 0.68966,0 0.83061,-1.13295 0.39033,-3.13754 -0.66726,-3.038 -0.59839,-3.11742 2.17055,-2.50323 1.57281,0.34888 4.80262,0.83095 7.17735,1.07128 2.37473,0.24032 4.88476,0.90758 5.57784,1.48279 1.86255,1.54578 7.15999,-0.28503 9.84,-3.40073 3.82763,-4.44988 10.01929,-4.64899 11.27949,-0.36272 0.67417,2.29299 1.51429,3.26269 2.66236,3.07299 0.92257,-0.15244 2.81461,0.86006 4.20455,2.25 1.48353,1.48353 3.68159,2.53348 5.32262,2.54247 1.5375,0.008 3.4515,0.4303 4.25334,0.93751 1.1312,0.71553 2.06187,-0.25735 4.15312,-4.34151 1.48237,-2.89503 4.15113,-6.7196 5.93057,-8.49904 4.36145,-4.36145 2.96257,-5.65642 -5.69052,-5.26782 -10.82358,0.48608 -15.29396,-3.41807 -12.51514,-10.92994 1.02319,-2.76596 -0.58773,-7.23388 -4.94486,-13.71464 C 188.30098,295.8348 187,293.19481 187,292.33324 c 0,-1.55022 0.17495,-1.54351 5.75,0.22047 1.58625,0.5019 1.71918,-0.20937 1.42068,-7.60111 -0.34717,-8.59667 1.12406,-11.95921 5.89511,-13.47348 2.27062,-0.72067 2.78377,-2.09426 5.03554,-13.47912 1.94404,-9.82898 3.29335,-12 7.45813,-12 3.56431,0 4.10391,-7.42292 0.82304,-11.32201 -3.16723,-3.76403 -2.73711,-5.75985 1.69063,-7.84471 5.10701,-2.4047 5.90924,-3.80051 6.59122,-11.46812 0.33583,-3.77584 0.96734,-7.56441 1.40335,-8.41904 1.76059,-3.45097 -0.68016,-3.72556 -3.00157,-0.33768 -1.65886,2.42095 -3.02899,3.39693 -4.47814,3.18988 -2.58889,-0.36989 -3.45773,-4.52734 -1.1326,-5.41957 1.19256,-0.45763 1.31996,-0.94452 0.5043,-1.92733 -0.75568,-0.91053 -0.78832,-2.41253 -0.10613,-4.88321 0.54187,-1.96252 0.63286,-3.56821 0.2022,-3.56821 -0.43067,0 -1.95853,-1.1755 -3.39526,-2.61222 -2.24392,-2.24393 -3.14434,-2.51437 -6.38636,-1.91813 -2.07578,0.38176 -5.44934,0.74827 -7.49681,0.81446 -3.16597,0.10235 -3.87475,0.55659 -4.73959,3.03748 -0.78182,2.24273 -1.48169,2.79558 -3.02733,2.39138 -1.36399,-0.35669 -2.01041,-0.036 -2.01041,0.99728 0,1.03068 -0.64652,1.35394 -2,1 -1.24222,-0.32485 -2,-0.0307 -2,0.77638 0,1.98956 -2.26814,2.44017 -8.21821,1.63273 C 168.8489,199.17855 168,199.51209 168,203.17695 c 0,2.1347 -0.56235,3.15735 -1.93336,3.51587 -1.66591,0.43565 -1.77753,0.84761 -0.80686,2.978 0.82675,1.8145 0.83011,2.65559 0.0127,3.16081 -2.00841,1.24126 -2.53354,5.70677 -0.83672,7.11502 1.87347,1.55484 2.06482,4.04117 0.31429,4.08376 -0.69372,0.0169 -0.47121,0.48401 0.5,1.04969 2.62044,1.52627 2.11648,5.1492 -1.23909,8.90767 -1.64399,1.8414 -3.82211,4.95995 -4.84025,6.93011 -1.21524,2.35158 -3.70954,4.63573 -7.26091,6.64919 -4.86398,2.75765 -5.38562,3.3773 -5.17058,6.14209 0.25568,3.28724 -3.56489,6.95543 -6.1937,5.94666 -2.15014,-0.82509 -3.82334,3.48313 -2.60118,6.69764 1.47579,3.88164 1.31667,6.52843 -0.5018,8.34691 -0.9685,0.9685 -1.26753,2.17055 -0.79071,3.17857 3.56966,7.54642 -5.07689,19.47433 -12.14954,16.76029 -0.94699,-0.36339 -1.50224,0.009 -1.50224,1.00879 0,1.1086 -0.61975,1.42318 -2.06117,1.04623 -1.21689,-0.31822 -2.27036,0.006 -2.57186,0.79182 -0.28087,0.73195 -1.79808,1.86408 -3.37157,2.51584 -1.82021,0.75395 -2.66279,1.7013 -2.31627,2.60429 0.29954,0.7806 -0.0236,2.10388 -0.71799,2.94062 -1.77732,2.14155 0.58833,6.3363 3.97228,7.04362 1.41162,0.29506 4.31015,1.16875 6.44118,1.94152 2.65463,0.96264 4.4444,1.10009 5.68426,0.43654 4.69556,-2.51299 8.77623,0.34627 5.56242,3.89749 -0.8917,0.98532 -1.62128,3.27165 -1.62128,5.08074 0,2.12176 -0.97608,4.4603 -2.75,6.58857 -1.5125,1.81463 -3.55851,4.46153 -4.54668,5.88201 -0.98818,1.42048 -2.67568,2.58269 -3.75,2.58269 -4.71679,0 -1.63259,4.17383 4.59085,6.21279 2.58554,0.84709 4.38472,2.23823 5.26199,4.06861 0.73319,1.52977 3.10175,3.89792 5.26346,5.26255 2.16171,1.36463 3.93038,2.87022 3.93038,3.34576 0,1.40691 9.32636,-0.0405 11.5,-1.78479 z"
       id="path7" />
    <path
       style="fill:#000000;fill-opacity:0;stroke:#000000;stroke-opacity:1"
       d="m 230.25,430.20675 c 2.41742,-1.02312 2.75,-1.70553 2.75,-5.64268 0,-3.98386 0.40546,-4.78741 3.66908,-7.27144 12.67895,-9.65028 20.00729,-18.64715 17.72797,-21.76431 -2.25227,-3.08016 -1.63263,-5.90765 2.08411,-9.51006 C 262.10942,380.56314 263.4343,374 258.90726,374 c -1.1968,0 -2.78821,-1.37878 -4.03976,-3.5 -1.42004,-2.40678 -2.7924,-3.5 -4.3937,-3.5 -5.78854,0 -7.93963,-7.2367 -3.63094,-12.2152 5.3929,-6.23125 4.89994,-7.41265 -3.01429,-7.22383 -3.78423,0.0903 -7.12031,-0.224 -7.41351,-0.69841 -0.2932,-0.47441 -1.35165,-0.86256 -2.3521,-0.86256 -1.00046,0 -2.4364,-0.88408 -3.19099,-1.96462 -1.22472,-1.75377 -1.87027,-1.85485 -6.01491,-0.94185 -7.77859,1.71351 -15.14777,-2.60984 -11.72834,-6.88078 2.53731,-3.16914 3.69244,-5.88409 2.98827,-7.02346 -1.09424,-1.77052 -5.34793,2.7686 -8.15521,8.70246 -2.04045,4.31297 -2.80408,5.09654 -4.46178,4.5783 -1.1,-0.34389 -3.78367,-0.9975 -5.96371,-1.45246 -2.18004,-0.45496 -4.65504,-1.65754 -5.5,-2.67239 C 191.19133,337.33034 189.6,336.5 188.5,336.5 c -1.40344,0 -2.29204,-0.99303 -2.97908,-3.32918 -1.22083,-4.15125 -5.4211,-3.83809 -9.70626,0.72366 -2.99014,3.18316 -9.1685,4.88667 -11.30182,3.11618 -0.73456,-0.60963 -3.28794,-1.25093 -5.6742,-1.42512 -2.38625,-0.17418 -5.05104,-0.62151 -5.92175,-0.99406 -1.29215,-0.55288 -1.50103,-0.11811 -1.1365,2.36557 0.26949,1.83614 0.005,3.04295 -0.66689,3.04295 -2.32769,0 -1.11975,3.96033 1.4009,4.59297 6.86181,1.72221 2.07994,13.38137 -5.90887,14.40703 -3.8348,0.49234 -3.91907,0.59487 -5.5,6.69234 -0.88304,3.40579 -2.61803,7.34671 -3.85553,8.75761 -3.22567,3.67764 0.57164,10.3241 7.56878,13.24769 l 3.4468,1.44017 -0.56849,5.50813 -0.56849,5.50813 3.78481,-0.63944 c 4.07165,-0.6879 10.08659,2.9648 10.08659,6.12529 0,1.5768 5.6885,4.36008 8.91118,4.36008 1.08648,0 2.61143,0.90804 3.38878,2.01787 1.37875,1.96844 1.55525,1.9077 7.20556,-2.47985 9.32297,-7.23945 14.69285,-6.9873 22.59147,1.0608 4.45051,4.53475 7.25941,5.52077 8.26464,2.90118 0.70891,-1.84741 8.66238,-2.07599 10.43837,-0.3 1.70265,1.70265 1.48601,4.54056 -0.42842,5.61193 -1.11334,0.62306 -1.27149,1.13189 -0.5,1.6087 1.58093,0.97707 1.40631,4.02853 -0.5449,9.52229 -2.60003,7.32054 -1.21298,9.29142 3.45714,4.91232 2.0439,-1.91653 4.95368,-4.00835 6.46618,-4.64849 z"
       id="path6" />
  </g>
</svg>
